<svg width="131" height="23" viewBox="0 0 131 23" fill="none" xmlns="http://www.w3.org/2000/svg">
<path d="M11.5 0L14.0819 7.9463H22.4371L15.6776 12.8574L18.2595 20.8037L11.5 15.8926L4.74047 20.8037L7.32238 12.8574L0.56285 7.9463H8.91809L11.5 0Z" fill="#F2BD57"/>
<path d="M38 0L40.6942 7.9463H49.4127L42.3593 12.8574L45.0534 20.8037L38 15.8926L30.9466 20.8037L33.6407 12.8574L26.5873 7.9463H35.3058L38 0Z" fill="#F2BD57"/>
<path d="M65 0L67.6942 7.9463H76.4127L69.3593 12.8574L72.0534 20.8037L65 15.8926L57.9466 20.8037L60.6407 12.8574L53.5873 7.9463H62.3058L65 0Z" fill="#F2BD57"/>
<path d="M92.5 0L95.0819 7.9463H103.437L96.6776 12.8574L99.2595 20.8037L92.5 15.8926L85.7405 20.8037L88.3224 12.8574L81.5628 7.9463H89.9181L92.5 0Z" fill="#F2BD57"/>
<path d="M119 0L121.694 7.9463H130.413L123.359 12.8574L126.053 20.8037L119 15.8926L111.947 20.8037L114.641 12.8574L107.587 7.9463H116.306L119 0Z" fill="#F2BD57"/>
</svg>
