<svg width="16" height="16" viewBox="0 0 16 16" fill="none" xmlns="http://www.w3.org/2000/svg">
<path d="M8 16C12.4183 16 16 12.4183 16 8C16 3.58172 12.4183 0 8 0C3.58172 0 0 3.58172 0 8C0 12.4183 3.58172 16 8 16Z" fill="#FF4B5A"/>
<path d="M11.2034 4.91872C11.5291 5.2444 11.4916 5.8101 11.1196 6.18251L6.09994 11.2062C5.7743 11.532 5.24609 11.5322 4.92032 11.2064C4.59476 10.8808 4.59463 10.353 4.92003 10.0273L9.93875 5.0035C10.3111 4.63069 10.8774 4.59272 11.2034 4.91872Z" fill="white"/>
<path d="M11.207 11.2041C10.8813 11.5298 10.3156 11.4923 9.94316 11.1202L4.91952 6.10061C4.59362 5.77497 4.59352 5.24676 4.91928 4.92099C5.24484 4.59544 5.77264 4.5953 6.09836 4.9207L11.1222 9.93942C11.495 10.3117 11.5329 10.8781 11.207 11.2041Z" fill="white"/>
</svg>
